<?xml version="1.0" encoding="UTF-8"?>
<svg width="1200pt" height="1200pt" version="1.1" viewBox="0 0 1200 1200" xmlns="http://www.w3.org/2000/svg">
 <path d="m261.43 587.52c20.812 23.254 47.625 43.441 79.453 55.215 15.961 5.6016 32.707 9.7188 49.719 10.734l12.707 0.67969 8.2266 0.027343h15.734 62 117.35 54.348 25.879 6.332c2.2383 0 2.0273 0.21484 3.1719 0.26562 1.6133 0.26562 3.2812-0.1875 4.8125 0.44141 12.508 1.5352 24.922 9.9219 34.613 20.961 9.8945 10.879 16.121 24.426 19.973 35.785 4.0117 11.48 4.9453 21.48 5.8516 28.121 0.54688 6.7461 0.57422 10.414 0.57422 10.414h0.16016v81.719h-100.65l168.85 284.87 168.83-284.87h-100.62v-91.668h-0.44141c-0.16016-3.4141-0.41406-7.7617-0.90625-13.52-1.6133-13.492-3.8516-33.441-12.16-58.027-8.3086-24.375-21.453-53.934-46.852-82.734-12.32-14.508-28.359-28.414-47.602-40.414-19.188-12-42.652-21.613-68.602-25.441-6.3984-1.3594-13.055-1.4258-19.691-1.9336-3.0273-0.16016-7.375-0.41406-9.3203-0.38672h-6.332-25.879-54.348-117.35-62-15.734l-7.6016-0.027343c-1.0391-0.16016-2.0781-0.26562-3.1211-0.30859-4.1875-0.054687-8.2266-1.3594-12.48-2.6016-16.691-5.8789-35.414-25.387-44.613-51.559-9.5078-25.762-9.8125-57.707-1.5352-83.668 8-26.172 25.16-47 41.453-54.238 4.0391-1.8281 7.9453-3.4141 11.852-3.9883 1.9336-0.46484 3.8516-0.83984 5.8398-0.73438l3.0938-0.30859h7.375 57.398 105.16 140.96v100.62l284.87-168.85-284.86-168.84v100.65h-140.96-105.16-57.398-7.375l-11.691 0.57422c-7.9453 0.26562-15.84 1.3984-23.691 3.0547-15.785 2.9219-30.988 8.4141-45.281 15.266-28.691 13.852-52.625 34.535-71.039 58.066-18.547 23.574-31.945 50.133-40.652 77.812-17.105 55.52-16.559 114.87 3.332 170.88 10.074 27.84 25.211 54.59 46.035 77.961z"/>
</svg>
