<?xml version="1.0" encoding="UTF-8"?>
<svg width="1200pt" height="1200pt" version="1.1" viewBox="0 0 1200 1200" xmlns="http://www.w3.org/2000/svg">
 <path d="m820.52 832.27h-163.24v-267.08h-356.67c-1.8789 0.054688-2.293-0.078125-2.8398-0.16016l-1.7734-0.16016c-1.1719-0.1875-2.4141 0.21484-3.5469-0.26563-2.3086-0.60156-4.7188-0.65234-7-1.6914-4.7461-1.1484-9.4141-3.9609-14.266-6.8789-9.4258-6.7188-18.828-16.852-25.812-29.734-13.988-25.652-18.148-60.879-10.762-91.387 7.0273-30.332 26.906-55.84 46.094-63.172 2.293-1.4531 4.7617-1.4531 7.0273-2.5742 2.3984-0.16016 4.6406-1.1719 7.0391-1.0938 1.1875 0 2.3594-0.10547 3.5586-0.26562 1.4258-0.16016 5.5742-0.054688 8.2266-0.078126h303.46v100.62l284.87-168.85-284.85-168.82v100.65h-303.46c-3.3594 0.027344-5.2383-0.10547-9.7852 0.078125l-14.453 0.83984c-9.6133 0.57422-19.078 2.8398-28.465 4.7852-9.0664 2.8398-18.52 5.2656-26.945 9.3477-34.879 14.945-62.867 39.238-83.066 66.691-20.414 27.48-34.332 58.148-41.785 89.719-14.746 62.922-8.0391 129.4 23.48 188.69 15.973 29.32 38.852 56.48 68.879 77.293 15.281 10.027 31.945 18.934 50.387 24.348 9.0117 3.1484 18.547 4.8398 28.055 6.4805 4.7188 0.98828 9.5859 0.98828 14.375 1.3984l7.2383 0.38672c2.4531 0.13281 5.0273 0.23828 6.1484 0.1875h220.27l-0.007813 267.09h299.65v100.65l284.88-168.85-284.91-168.83z"/>
</svg>
