<?xml version="1.0" encoding="UTF-8"?>
<svg width="1200pt" height="1200pt" version="1.1" viewBox="0 0 1200 1200" xmlns="http://www.w3.org/2000/svg">
 <path d="m1086.5 525h-822.98l358.46-358.46c29.25-29.25 29.25-76.801 0-106.05-29.211-29.25-76.836-29.25-106.05 0l-433.46 433.43c-28.352 28.352-43.949 66.039-43.949 106.09 0 40.051 15.602 77.738 43.949 106.05l433.46 433.46c14.176 14.176 33 21.977 53.023 21.977 20.023 0 38.852-7.8008 53.023-21.977 29.25-29.25 29.25-76.801 0-106.05l-358.46-358.46h822.98c41.363 0 75-33.637 75-75s-33.637-75-75-75z"/>
</svg>
