<svg xmlns="http://www.w3.org/2000/svg" width="936" height="290" viewBox="0 0 936 290" role="img" aria-labelledby="title desc">
<title id="title">Commit objects by UTC day</title>
<desc id="desc">Daily retained SHA-distinct commit objects with committer dates in the reporting week. Green is declared Claude coauthorship; red is the remaining objects, whose assistance is not established. Merges included; not a measure of productivity or AI-written code.</desc>
<path d="M6 10 L917 3 L934 269 L925 286 L23 281 L3 263 Z" fill="#e4e6cf"/>
<text x="28" y="38" fill="#243c30" font-family="Rubik" font-size="28" font-weight="bold" text-anchor="start">Commit objects by UTC day</text>
<rect x="31" y="51" width="15" height="15" fill="#50745b"/>
<text x="56" y="65" fill="#243c30" font-family="Rubik" font-size="19" font-weight="normal" text-anchor="start">Declared Claude co-author: 300</text>
<rect x="480" y="51" width="15" height="15" fill="#b83b25"/>
<text x="505" y="65" fill="#243c30" font-family="Rubik" font-size="19" font-weight="normal" text-anchor="start">Remaining objects: 97</text>
<path d="M67 216.0 L907 216.0" stroke="#50745b" stroke-width="1" fill="none" stroke-opacity="0.25"/>
<text x="56" y="222.0" fill="#243c30" font-family="Rubik" font-size="17" font-weight="normal" text-anchor="end">0</text>
<path d="M67 174.0 L907 174.0" stroke="#50745b" stroke-width="1" fill="none" stroke-opacity="0.25"/>
<text x="56" y="180.0" fill="#243c30" font-family="Rubik" font-size="17" font-weight="normal" text-anchor="end">40</text>
<path d="M67 132.0 L907 132.0" stroke="#50745b" stroke-width="1" fill="none" stroke-opacity="0.25"/>
<text x="56" y="138.0" fill="#243c30" font-family="Rubik" font-size="17" font-weight="normal" text-anchor="end">80</text>
<path d="M67 90.0 L907 90.0" stroke="#50745b" stroke-width="1" fill="none" stroke-opacity="0.25"/>
<text x="56" y="96.0" fill="#243c30" font-family="Rubik" font-size="17" font-weight="normal" text-anchor="end">120</text>
<rect x="97" y="126.75" width="57" height="89.25" fill="#50745b"/>
<rect x="97" y="121.5" width="57" height="5.25" fill="#b83b25"/>
<text x="125.5" y="113.5" fill="#243c30" font-family="Rubik" font-size="20" font-weight="bold" text-anchor="middle">90</text>
<text x="125.5" y="239" fill="#243c30" font-family="Rubik" font-size="18" font-weight="normal" text-anchor="middle">Oct 2</text>
<rect x="212" y="163.5" width="57" height="52.5" fill="#50745b"/>
<rect x="212" y="162.45" width="57" height="1.05" fill="#b83b25"/>
<text x="240.5" y="154.45" fill="#243c30" font-family="Rubik" font-size="20" font-weight="bold" text-anchor="middle">51</text>
<text x="240.5" y="239" fill="#243c30" font-family="Rubik" font-size="18" font-weight="normal" text-anchor="middle">Oct 3</text>
<rect x="327" y="180.3" width="57" height="35.7" fill="#50745b"/>
<text x="355.5" y="172.3" fill="#243c30" font-family="Rubik" font-size="20" font-weight="bold" text-anchor="middle">34</text>
<text x="355.5" y="239" fill="#243c30" font-family="Rubik" font-size="18" font-weight="normal" text-anchor="middle">Oct 4</text>
<rect x="442" y="196.05" width="57" height="19.95" fill="#50745b"/>
<text x="470.5" y="188.05" fill="#243c30" font-family="Rubik" font-size="20" font-weight="bold" text-anchor="middle">19</text>
<text x="470.5" y="239" fill="#243c30" font-family="Rubik" font-size="18" font-weight="normal" text-anchor="middle">Oct 5</text>
<rect x="557" y="167.7" width="57" height="48.300000000000004" fill="#50745b"/>
<rect x="557" y="132.0" width="57" height="35.7" fill="#b83b25"/>
<text x="585.5" y="124.0" fill="#243c30" font-family="Rubik" font-size="20" font-weight="bold" text-anchor="middle">80</text>
<text x="585.5" y="239" fill="#243c30" font-family="Rubik" font-size="18" font-weight="normal" text-anchor="middle">Oct 6</text>
<rect x="672" y="164.55" width="57" height="51.45" fill="#50745b"/>
<rect x="672" y="104.70000000000002" width="57" height="59.85" fill="#b83b25"/>
<text x="700.5" y="96.70000000000002" fill="#243c30" font-family="Rubik" font-size="20" font-weight="bold" text-anchor="middle">106</text>
<text x="700.5" y="239" fill="#243c30" font-family="Rubik" font-size="18" font-weight="normal" text-anchor="middle">Oct 7</text>
<rect x="787" y="198.15" width="57" height="17.85" fill="#50745b"/>
<text x="815.5" y="190.15" fill="#243c30" font-family="Rubik" font-size="20" font-weight="bold" text-anchor="middle">17</text>
<text x="815.5" y="239" fill="#243c30" font-family="Rubik" font-size="18" font-weight="normal" text-anchor="middle">Oct 8</text>
<text x="29" y="255" fill="#243c30" font-family="Rubik" font-size="18" font-weight="normal" text-anchor="start">SHA-distinct · merges included · committer dates are not push dates</text>
<text x="29" y="275" fill="#243c30" font-family="Rubik" font-size="17" font-weight="normal" text-anchor="start">Missing credits do not establish no assistance. Not a productivity measure.</text>
</svg>
